# xmcd
#
# Track frame offsets:
#	150
#	22850
#	37640
#	52090
#	78155
#	91077
#	120380
#	139715
#	154007
#	163835
#	182032
#	205150
#	220032
#	238402
#	249800
#	278582
#
# Disc length: 4160 seconds
#
# Revision: 1
# Processed by: cddbd v1.5PL3 Copyright (c) Steve Scherf et al.
# Submitted via: audiograbber 1.81.03
#
DISCID=c3103e10
DTITLE=Various Artist - Black and White [CD2]
DYEAR=1997
DGENRE=Blues
TTITLE0=George Thorogood - New Boogie Chillun'
TTITLE1=Canned Heat - Dust My Broom
TTITLE2=Johnny Winter - Rollin' and Tumblin'
TTITLE3=The Groundhogs - Groundhog Blues
TTITLE4=The Animals - Dimples
TTITLE5=Dr Feelgood - Shotgun Blues
TTITLE6=Rockpile - Egg Or The Hen
TTITLE7=Manfred Mann - Got My Mojo Workin'
TTITLE8=Alexis Korner - I'm Tore Down
TTITLE9=Groundhogs - Mistreated
TTITLE10=Love Sculpture - 3 O'Clock Blues
TTITLE11=Dr Feelgood - Checkin' Up On My Baby
TTITLE12=Eddie Cochrane - Eddie's Blues
TTITLE13=Jeff Beck - You Shook Me
TTITLE14=Canned Heat - T.V. Mama
TTITLE15=Alvin Lee - The Bluest Blues
EXTD=
EXTT0=
EXTT1=
EXTT2=
EXTT3=
EXTT4=
EXTT5=
EXTT6=
EXTT7=
EXTT8=
EXTT9=
EXTT10=
EXTT11=
EXTT12=
EXTT13=
EXTT14=
EXTT15=
PLAYORDER=
